<svg xmlns="http://www.w3.org/2000/svg" width="22"  viewBox="0 0 42.479 45.039">
                <path id="Icon_awesome-github-square" data-name="Icon awesome-github-square" d="M37.928,2.25H4.551A4.7,4.7,0,0,0,0,7.076V42.463a4.7,4.7,0,0,0,4.551,4.826H37.928a4.7,4.7,0,0,0,4.551-4.826V7.076A4.7,4.7,0,0,0,37.928,2.25ZM26.293,40.824a.816.816,0,0,1-1.09-.8c0-.543.019-3.318.019-5.559a4.044,4.044,0,0,0-1.071-3.086c3.508-.412,7.206-.925,7.206-7.349A5.305,5.305,0,0,0,29.735,20.1a6.641,6.641,0,0,0-.161-4.524c-1.318-.432-4.333,1.8-4.333,1.8a14.1,14.1,0,0,0-7.889,0s-3.015-2.232-4.333-1.8a6.589,6.589,0,0,0-.161,4.524,5.208,5.208,0,0,0-1.479,3.921c0,6.394,3.537,6.937,7.045,7.349a3.731,3.731,0,0,0-1.005,2.242,3.223,3.223,0,0,1-4.58-1.4A3.276,3.276,0,0,0,10.421,30.5c-1.536-.02-.1,1.025-.1,1.025,1.024.5,1.745,2.433,1.745,2.433.92,2.986,5.319,1.98,5.319,1.98,0,1.4.019,3.669.019,4.082a.813.813,0,0,1-1.09.8C10.051,38.6,5.67,32.289,5.67,24.91c0-9.229,6.656-16.236,15.361-16.236S36.79,15.681,36.79,24.91C36.8,32.289,32.551,38.613,26.293,40.824Zm-9.3-6.143c-.18.04-.351-.04-.37-.171a.317.317,0,0,1,.284-.322c.18-.02.351.06.37.191S17.181,34.642,16.992,34.682Zm-.9-.09c0,.131-.142.241-.332.241-.209.02-.351-.09-.351-.241,0-.131.142-.241.332-.241A.293.293,0,0,1,16.091,34.591Zm-1.3-.111a.294.294,0,0,1-.389.131c-.18-.04-.3-.191-.265-.322s.228-.191.389-.151C14.716,34.2,14.839,34.35,14.792,34.481Zm-1.166-.543c-.085.111-.265.09-.408-.06-.142-.131-.18-.322-.085-.412.085-.111.265-.09.408.06C13.663,33.656,13.711,33.857,13.625,33.938Zm-.863-.915c-.085.06-.247,0-.351-.151s-.1-.322,0-.392c.1-.09.265-.02.351.131a.307.307,0,0,1,0,.412Zm-.616-.975c-.085.09-.228.04-.332-.06-.1-.131-.123-.281-.038-.352.085-.09.228-.04.332.06C12.213,31.827,12.232,31.977,12.146,32.048Zm-.635-.744a.173.173,0,0,1-.265.04c-.123-.06-.18-.171-.142-.261a.214.214,0,0,1,.265-.04C11.492,31.113,11.549,31.223,11.511,31.3Z" transform="translate(0 -2.25)" fill="#fff"/>
              </svg>