<svg xmlns="http://www.w3.org/2000/svg" width="20"  viewBox="0 0 41.003 45.039">
                <path id="Icon_simple-instagram" data-name="Icon simple-instagram" d="M20.5,0c-5.57,0-6.265.028-8.452.135A13.943,13.943,0,0,0,7.073,1.182a10,10,0,0,0-3.632,2.6,11.153,11.153,0,0,0-2.364,3.99,17.989,17.989,0,0,0-.953,5.467C.021,15.638,0,16.4,0,22.519S.026,29.4.123,31.8a18.053,18.053,0,0,0,.953,5.467,11.21,11.21,0,0,0,2.364,3.99,9.984,9.984,0,0,0,3.632,2.6A13.96,13.96,0,0,0,12.05,44.9c2.187.113,2.882.135,8.452.135s6.265-.028,8.452-.135a13.992,13.992,0,0,0,4.977-1.047,10.034,10.034,0,0,0,3.632-2.6,11.161,11.161,0,0,0,2.364-3.99A18.053,18.053,0,0,0,40.88,31.8c.1-2.4.123-3.166.123-9.284s-.026-6.882-.123-9.284a18.1,18.1,0,0,0-.953-5.467,11.218,11.218,0,0,0-2.364-3.99,9.947,9.947,0,0,0-3.632-2.6A13.91,13.91,0,0,0,28.953.135C26.766.023,26.071,0,20.5,0Zm0,4.053c5.472,0,6.125.03,8.286.133a10.421,10.421,0,0,1,3.8.779,6.342,6.342,0,0,1,2.361,1.681,7.06,7.06,0,0,1,1.531,2.592,13.507,13.507,0,0,1,.706,4.179c.1,2.376.12,3.089.12,9.1s-.026,6.728-.126,9.1a13.763,13.763,0,0,1-.719,4.179,7.254,7.254,0,0,1-1.536,2.593,6.371,6.371,0,0,1-2.358,1.681,10.518,10.518,0,0,1-3.818.775c-2.177.107-2.817.131-8.3.131s-6.126-.028-8.3-.139a10.726,10.726,0,0,1-3.82-.79,6.328,6.328,0,0,1-2.356-1.687,6.935,6.935,0,0,1-1.538-2.59,13.882,13.882,0,0,1-.718-4.194c-.077-2.365-.1-3.095-.1-9.09s.027-6.73.1-9.122a13.865,13.865,0,0,1,.718-4.192A6.77,6.77,0,0,1,5.973,6.585,6.043,6.043,0,0,1,8.329,4.9a10.472,10.472,0,0,1,3.794-.79C14.3,4.025,14.942,4,20.424,4l.077.056Zm0,6.9c-5.817,0-10.527,5.179-10.527,11.564S14.689,34.083,20.5,34.083,31.029,28.9,31.029,22.519,26.313,10.956,20.5,10.956Zm0,19.07c-3.776,0-6.834-3.359-6.834-7.506s3.058-7.506,6.834-7.506,6.834,3.359,6.834,7.506S24.277,30.026,20.5,30.026ZM33.906,10.5a2.471,2.471,0,1,1-4.92,0,2.471,2.471,0,1,1,4.92,0Z" fill="#fff"/>
              </svg>