<svg xmlns="http://www.w3.org/2000/svg" width="22"  viewBox="0 0 42.946 44.443">
                <path id="Icon_awesome-linkedin" data-name="Icon awesome-linkedin" d="M39.878,2.25H3.058A3.137,3.137,0,0,0,0,5.454V43.488a3.137,3.137,0,0,0,3.058,3.2h36.82a3.145,3.145,0,0,0,3.068-3.2V5.454A3.145,3.145,0,0,0,39.878,2.25ZM12.98,40.344H6.614V19.134h6.375V40.344ZM9.8,16.238A3.822,3.822,0,0,1,9.8,8.6a3.822,3.822,0,0,1,0,7.639ZM36.839,40.344H30.474V30.027c0-2.46-.048-5.625-3.307-5.625-3.317,0-3.825,2.678-3.825,5.446v10.5H16.977V19.134h6.106v2.9h.086a6.667,6.667,0,0,1,6.03-3.422c6.442,0,7.64,4.395,7.64,10.109Z" transform="translate(0 -2.25)" fill="#fff"/>
              </svg>